<svg xmlns="http://www.w3.org/2000/svg" width="60" height="61" fill="none" viewBox="0 0 60 61">
  <path fill="#fff" d="m8.027.5-.968.97v5.128l.968.97h10.239l4.94 5.034h4.061l.968-.969V7.568L21.177.5H8.027Zm15.18 16.168-4.942 5.035H9.97l-2.911-2.915V8.537l-.968-.97H.968L0 8.538v13.166l7.059 7.067h14.117l7.06-7.067v-4.066l-.969-.97h-4.06ZM59.032.5h-4.06L31.764 23.735v4.066l.968.97h4.06L60 5.534V1.469L59.032.5Zm-4.323 12.015-1.768 1.763v4.51l-5.028 4.947v4.066l.968.97h4.06L60 21.702v-8.219l-.968-.97h-4.323ZM7.06 46.095l-1.762-1.763H.968l-.968.97v8.13L7.059 60.5h4.06l.968-.976v-4.059L7.06 50.518v-4.422ZM.969 32.23 0 33.2v4.065L23.207 60.5h4.06l.968-.976v-4.059L12.087 39.297h6.178l2.912 2.915v4.415l1.768 1.77h4.322l.968-.975v-8.125l-7.058-7.067H.968Zm38.823 0-.968.97v5.121l.968.976H50.03l2.911 2.915v8.306l-2.91 2.914H39.266l-.444-.444V40.267l-.968-.97h-5.122l-.968.97v19.257l.968.976H52.94L60 53.432V39.297l-7.059-7.067h-13.15Z"/>
</svg>
