<svg xmlns="http://www.w3.org/2000/svg" width="16" height="16" fill="none" viewBox="0 0 16 16">
  <path fill="#1E1E1E" d="M8 0C0 0 0 0 0 8s0 8 8 8 8 0 8-8 0-8-8-8Z"/>
  <path fill="#fff" d="m3.605 2-.193.194V3.22l.193.194h2.048l.988 1.006h.812l.194-.193v-.813L6.235 2h-2.63Zm3.036 3.234L5.653 6.24H3.994l-.582-.583v-2.05l-.194-.194H2.194L2 3.607v2.634l1.412 1.413h2.823l1.412-1.413v-.814l-.194-.193h-.812ZM13.806 2h-.812L8.353 6.647v.813l.194.194h.812L14 3.007v-.813L13.806 2Zm-.864 2.403-.354.353v.902l-1.005.99v.812l.193.194h.812L14 6.241V4.597l-.194-.194h-.864Zm-9.53 6.717-.353-.354h-.865L2 10.96v1.626L3.412 14h.812l.193-.195v-.812l-1.005-.99v-.884ZM2.194 8.346 2 8.54v.813L6.641 14h.812l.194-.195v-.812l-3.23-3.234h1.236l.582.583v.883l.354.354h.864l.194-.195V9.76L6.235 8.346H2.194Zm7.764 0-.193.194v1.024l.193.195h2.048l.582.583v1.662l-.582.582H9.853l-.088-.088V9.953L9.57 9.76H8.547l-.194.194v3.852l.194.195h4.041L14 12.586V9.76l-1.412-1.413h-2.63Z"/>
</svg>
