<svg xmlns="http://www.w3.org/2000/svg" width="91" height="90" fill="currentColor" viewBox="0 0 91 90">
  <path d="M80.24 0H60.69l-1.45 1.44v7.62l1.45 1.44h15.22l7.35 7.48h6.04l1.44-1.44V10.5L80.24 0Zm3.02 24.02-7.35 7.48H63.57l-4.33-4.33V11.94L57.8 10.5h-7.61l-1.45 1.44V31.5L59.24 42h21l10.5-10.5v-6.04l-1.44-1.44h-6.04ZM11.99 67.74l-2.62-2.62H2.94l-1.45 1.44v12.08l10.5 10.5h6.04l1.44-1.45v-6.03l-7.48-7.35v-6.57Zm-9.05-20.6-1.45 1.44v6.04l34.52 34.52h6.04l1.44-1.45v-6.03L19.47 57.64h9.19l4.33 4.33v6.56l2.63 2.63h6.43l1.44-1.45V57.64l-10.5-10.5H2.94Zm57.75 0-1.45 1.44v7.61l1.45 1.45h15.22l4.33 4.33v12.34l-4.33 4.33H59.9l-.66-.66v-18.9l-1.44-1.44h-7.61l-1.45 1.44v28.61l1.45 1.45h30.05l10.5-10.5v-21l-10.5-10.5H60.69Zm-17.2-13.02h-41l-1 1v3.25l1 1h41l1-1v-3.25l-1-1Zm-39.4-9.48 1.24 1.11c.36.33.81.5 1.31.5h1.54c.53 0 .99-.18 1.3-.5l1.22-1.09c.69-.62 1.11-1.29 1.25-2l2.07-10.82c.09-.46-.07-.77-.21-.94-.22-.27-.56-.4-.99-.4h-2.18c-.36 0-.65.1-.85.3-.16.16-.28.4-.36.76L7.7 22.11h-.55L5.3 11.52c-.07-.32-.16-.53-.29-.68-.19-.23-.49-.35-.88-.35H1.91c-.82 0-1.18.55-1.18 1.09l2.13 11.09c.14.66.54 1.31 1.23 1.97Zm16.17 1.61c.71 0 1.18-.48 1.18-1.18V14.64h3.9v2.22c0 .71.48 1.18 1.18 1.18h2.09c.71 0 1.18-.48 1.18-1.18v-2.47c0-.86-.33-1.6-.94-2.13l-1.38-1.25c-.36-.33-.81-.5-1.31-.5h-3.31c-.46 0-.9.19-1.28.58l-.19.2c-.05-.18-.14-.33-.27-.46-.21-.21-.5-.32-.86-.32h-2.09c-.71 0-1.18.53-1.18 1.23v13.33c0 .71.48 1.18 1.18 1.18h2.1Zm23.45-4.13h-4.7v-7.48h3.8c.71 0 1.18-.48 1.18-1.18v-1.77c0-.36-.11-.65-.32-.87-.21-.21-.5-.32-.87-.32H39V8.15c0-.36-.11-.66-.32-.86-.21-.21-.5-.32-.87-.32h-2.09c-.71 0-1.18.48-1.18 1.18v2.35h-2.25c-.71 0-1.18.48-1.18 1.18v1.77c0 .71.48 1.18 1.18 1.18h2.25v7.74c0 .84.34 1.57.99 2.11l1.49 1.27c.36.33.81.5 1.31.5h5.37c.71 0 1.18-.48 1.18-1.18V23.3c0-.36-.11-.66-.32-.86-.21-.21-.5-.32-.87-.32h.02Z"/>
</svg>
