<svg xmlns="http://www.w3.org/2000/svg" width="203" height="71" fill="#121212" viewBox="0 0 203 71">
  <path d="m11.94 28.57-1.44 1.44v7.61l1.44 1.45h15.23l7.35 7.48h6.04L42 45.11v-6.04l-10.5-10.5H11.94Zm22.58 24.02-7.35 7.48H14.83l-4.33-4.33V40.51l-1.44-1.44H1.44L0 40.51v19.56l10.5 10.5h21L42 60.07v-6.04l-1.44-1.44h-6.04Zm47.25-24.02L47.25 63.09v6.03l1.44 1.45h6.04l34.52-34.52v-6.04l-1.44-1.44h-6.04Zm-.39 17.85-2.63 2.62v6.7l-7.48 7.35v6.03l1.44 1.45h6.04l10.5-10.5V47.86l-1.44-1.44h-6.43ZM105 49.17l-2.62-2.62h-6.44l-1.44 1.44v12.08l10.5 10.5h6.04l1.44-1.45v-6.03L105 55.74v-6.57Zm-9.06-20.6-1.44 1.44v6.04l34.52 34.52h6.04l1.44-1.45v-6.03l-24.02-24.02h9.19L126 43.4v6.56l2.63 2.63h6.43l1.44-1.45V39.07L126 28.57H95.94Zm96.31 0H153.7l-1.45 1.44v7.61l1.45 1.45h34.22l4.33 4.33v12.34l-4.33 4.33h-35.01l-.66-.66v-18.9l-1.44-1.44h-7.61l-1.45 1.44v28.61l1.45 1.45h49.05l10.5-10.5v-21l-10.5-10.5Z"/>
  <path d="M184.74 53.4v-7.61l-1.44-1.44h-22.25l-1.44 1.44v7.61l1.44 1.45h22.25l1.44-1.45ZM10.28 21.56l5.8-15.92h-4.09l-3.84 12.5-3.86-12.5H.16l5.83 15.92h4.29ZM21.85.13h-3.96v3.25h3.96V.13Zm-.1 5.51h-3.74v15.92h3.74V5.64ZM29 9.73c.52-.24 1.1-.42 1.74-.55.64-.13 1.34-.19 2.09-.19.49 0 .84 0 1.05.02.2.01.37.04.5.08V5.48s-.1-.03-.18-.03h-.44c-.77 0-1.57.13-2.38.39-.82.26-1.62.62-2.42 1.1h-.1l-.16-1.29h-3.45v15.92h3.74V9.74l.01-.01Zm15.15 8.64c-1.05 0-1.78-.17-2.19-.52-.41-.34-.61-.99-.61-1.93V8.77h5.09V5.64h-5.09v-3.8h-3.13l-.52 3.8h-2.22v3.13h2.13v7.28c0 2.08.44 3.57 1.32 4.46.88.89 2.34 1.34 4.38 1.34.54 0 1.13-.06 1.79-.18.65-.12 1.17-.25 1.53-.4v-3.19c-.3.09-.7.16-1.19.21-.49.05-.92.08-1.29.08Zm9.86 3.48c.71 0 1.47-.12 2.27-.35.8-.23 1.65-.58 2.53-1.03h.1l.13 1.1h3.45V5.65h-3.74v11.99c-.54.21-1.12.39-1.74.52-.62.13-1.24.19-1.84.19-.97 0-1.67-.18-2.09-.55-.43-.37-.64-.96-.64-1.77V5.65H48.7v10.86c0 1.78.44 3.12 1.32 4.01.88.89 2.21 1.34 4 1.34l-.01-.01Zm15.76 0c.86 0 1.73-.16 2.63-.47a8.88 8.88 0 0 0 2.37-1.24h.06l.16 1.42h3.45V10.67c0-1.78-.48-3.12-1.45-4.01-.97-.89-2.43-1.34-4.38-1.34-1.31 0-2.44.05-3.4.15-.96.1-1.84.24-2.66.43v3.13c.71-.15 1.46-.26 2.24-.32.78-.06 1.68-.1 2.69-.1 1.12 0 1.93.19 2.45.58.52.39.77 1 .77 1.84v1.35c-.47-.11-1.03-.19-1.68-.26-.65-.07-1.28-.1-1.9-.1-2.23 0-3.81.37-4.72 1.1-.91.73-1.37 1.98-1.37 3.74 0 1.76.38 2.98 1.14 3.79.76.81 1.96 1.21 3.59 1.21l.01-.01Zm-.58-6.75c.43-.27 1.22-.4 2.38-.4.56 0 1.09.02 1.6.06.5.04 1.02.11 1.53.19v2.74c-.52.28-1.12.51-1.82.69-.7.18-1.36.27-1.98.27-.86 0-1.47-.16-1.82-.47-.35-.31-.53-.83-.53-1.56 0-.73.21-1.26.64-1.53v.01ZM85.63.13h-3.74v21.43h3.74V.13Zm9.87 13.48h95.36l1-1V9.36l-1-1H95.5l-1 1v3.25l1 1Z"/>
</svg>
