<svg xmlns="http://www.w3.org/2000/svg" width="90" height="90" fill="currentColor" viewBox="0 0 90 90">
  <path d="M11.94 0 10.5 1.44v7.62l1.44 1.44h15.23l7.35 7.48h6.04L42 16.54V10.5L31.5 0H11.94Zm22.58 24.02-7.35 7.48H14.83l-4.33-4.33V11.94L9.06 10.5H1.44L0 11.94V31.5L10.5 42h21L42 31.5v-6.04l-1.44-1.44h-6.04ZM87.81 0h-6.04L47.25 34.52v6.04L48.69 42h6.04L89.25 7.48V1.44L87.81 0Zm-6.43 17.85-2.63 2.62v6.7l-7.48 7.35v6.04L72.71 42h6.04l10.5-10.5V19.29l-1.44-1.44h-6.43ZM10.5 67.74l-2.62-2.62H1.44L0 66.56v12.08l10.5 10.5h6.04l1.44-1.45v-6.03l-7.48-7.35v-6.57Zm-9.06-20.6L0 48.58v6.04l34.52 34.52h6.04L42 87.69v-6.03L17.98 57.64h9.19l4.33 4.33v6.56l2.63 2.63h6.43L42 69.71V57.64l-10.5-10.5H1.44Zm57.75 0-1.44 1.44v7.61l1.44 1.45h15.23l4.33 4.33v12.34l-4.33 4.33H58.41l-.66-.66v-18.9l-1.44-1.44h-7.62l-1.44 1.44v28.61l1.44 1.45h30.06l10.5-10.5v-21l-10.5-10.5H59.19Z"/>
</svg>
